<?xml version="1.0" encoding="UTF-8"?><svg id="Layer_1" xmlns="http://www.w3.org/2000/svg" xmlns:xlink="http://www.w3.org/1999/xlink" viewBox="0 0 283.8 68.84"><defs><style>.cls-1{fill:#293070;}.cls-2{clip-path:url(#clippath);}.cls-3{fill:none;}</style><clipPath id="clippath"><path class="cls-3" d="M18.03,50.83h16.76v18.01H18.03v-18.01Zm172.97,1.41h10.9l-5.48-16.19-5.42,16.19ZM283.8,0V68.84h-30.92v-8.62h-19.03l19.03-27.22v-8.19h-31.25v8.82h18.9l-18.9,27.22v7.99h-64.33c3.8-.23,7.2-1.14,10.2-2.71,3.51-1.84,6.21-4.45,8.13-7.81,1.91-3.36,2.86-7.2,2.86-11.53s-.95-8.22-2.86-11.56c-1.92-3.34-4.61-5.93-8.1-7.78-3.49-1.84-7.56-2.77-12.22-2.77h-16.57v44.16h-3.82V24.61h-10.77v44.23h-2.83v-8.12h-14.11V24.81h-10.77v44.03h-21.15c2.11-.48,4.11-1.24,6.01-2.3,3.44-1.93,6.17-4.63,8.19-8.1s3.02-7.36,3.02-11.69-1-8.21-2.99-11.66c-2-3.44-4.72-6.13-8.19-8.06-3.46-1.93-7.28-2.9-11.43-2.9s-7.97,.97-11.43,2.9c-3.47,1.93-6.22,4.62-8.25,8.06-2.04,3.44-3.06,7.33-3.06,11.66s1.02,8.22,3.06,11.69c2.04,3.46,4.79,6.16,8.25,8.1,1.9,1.06,3.92,1.82,6.03,2.3h-18.92V24.81h-10.77v17.33H18.03V24.81H7.26v44.03H0V0H283.8Zm-65.09,68.37l-16-44.23h-12.47l-16,44.23h11.28l2.65-7.81h16.51l2.65,7.81h11.4Zm64.65-44.23h-27.09v44.23h27.09v-8.63h-16.32v-9.7h14.43v-8.32h-14.43v-8.95h16.32v-8.63Zm-205.01,13.26c-2.12-2.33-4.95-3.5-8.47-3.5s-6.42,1.16-8.54,3.46c-2.12,2.31-3.18,5.44-3.18,9.39s1.06,7.02,3.18,9.36c2.12,2.33,4.97,3.5,8.54,3.5s6.35-1.18,8.47-3.53c2.12-2.35,3.18-5.46,3.18-9.32s-1.06-7.03-3.18-9.36Zm89.18,9.38c0-4.07-1.13-7.24-3.4-9.51-2.27-2.27-5.44-3.4-9.51-3.4h-5.11v25.7h5.11c4.07,0,7.24-1.11,9.51-3.34,2.27-2.22,3.4-5.37,3.4-9.45Z"/></clipPath></defs><g class="cls-2"><polygon class="cls-1" points="5.35 35 21.49 15.38 39.18 34.62 60.73 9.87 82.82 34.54 98.81 13.88 113.29 35 129.85 16.48 146.59 34.54 170.15 3.38 190.96 34.92 207.52 9.06 223.8 33.2 240 9.38 257.73 33.36 271.52 12.8 283.8 34.92 283.8 67.43 5.35 67.43 5.35 35"/></g></svg>